<svg xmlns="http://www.w3.org/2000/svg" width="17" height="17" viewBox="0 0 17 17">
    <path fill="#FFF" fill-rule="evenodd" d="M8.5 1.532c2.27 0 2.539.009 3.435.05 2.304.105 3.38 1.198 3.485 3.484.04.896.049 1.165.049 3.435s-.009 2.538-.05 3.434c-.105 2.285-1.178 3.38-3.484 3.485-.896.04-1.164.05-3.435.05-2.27 0-2.539-.01-3.435-.05-2.309-.106-3.38-1.204-3.484-3.485-.041-.896-.05-1.165-.05-3.435s.01-2.538.05-3.435c.106-2.285 1.179-3.38 3.484-3.484.897-.04 1.166-.049 3.435-.049zM8.5 0C6.192 0 5.903.01 4.996.051 1.909.193.193 1.905.052 4.995.01 5.903 0 6.192 0 8.5s.01 2.598.051 3.505c.142 3.087 1.854 4.802 4.944 4.944.908.041 1.197.051 3.505.051s2.598-.01 3.505-.051c3.084-.142 4.804-1.854 4.943-4.944.042-.907.052-1.197.052-3.505s-.01-2.597-.051-3.504C16.81 1.912 15.095.193 12.006.052 11.098.01 10.808 0 8.5 0zm0 4.135a4.365 4.365 0 1 0 0 8.73 4.365 4.365 0 0 0 0-8.73zm0 7.198a2.833 2.833 0 1 1 0-5.666 2.833 2.833 0 0 1 0 5.666zm4.538-8.39a1.02 1.02 0 1 0-.001 2.041 1.02 1.02 0 0 0 0-2.04z"/>
</svg>
