<svg xmlns="http://www.w3.org/2000/svg" width="13" height="21" viewBox="0 0 13 21">
    <path fill="#FFF" fill-rule="evenodd" d="M6.143 10.98c2.79 0 5.067-2.266 5.067-5.056A5.07 5.07 0 0 0 6.143.857a5.07 5.07 0 0 0-5.067 5.067c0 2.79 2.277 5.056 5.067 5.056zm0-7.556a2.494 2.494 0 0 1 2.489 2.5 2.491 2.491 0 0 1-2.49 2.489 2.491 2.491 0 0 1-2.488-2.489c0-1.384 1.116-2.5 2.489-2.5zm5.837 8.17c-.29-.57-1.083-1.05-2.132-.223 0 0-1.417 1.127-3.705 1.127-2.288 0-3.705-1.127-3.705-1.127-1.05-.826-1.842-.346-2.132.223-.491 1.004.067 1.484 1.34 2.31 1.082.692 2.577.949 3.537 1.05l-.804.803c-1.138 1.127-2.22 2.22-2.98 2.98a1.152 1.152 0 0 0 0 1.64l.134.145a1.172 1.172 0 0 0 1.641 0l2.98-2.99a660.458 660.458 0 0 1 2.98 2.99 1.186 1.186 0 0 0 1.652 0l.134-.145a1.172 1.172 0 0 0 0-1.64l-2.98-2.98-.815-.804c.971-.1 2.444-.368 3.516-1.049 1.272-.826 1.83-1.306 1.339-2.31z"/>
</svg>
