<svg xmlns="http://www.w3.org/2000/svg" width="22" height="13" viewBox="0 0 22 13">
    <path fill="#FFF" fill-rule="evenodd" d="M21.406.884S21.25.438 20.279.561l-3.215.022C16.82.55 16.64.65 16.64.65s-.19.1-.279.346c-.524 1.35-1.194 2.511-1.194 2.511-1.428 2.433-2.009 2.567-2.243 2.41-.547-.345-.402-1.405-.402-2.164 0-2.366.357-3.348-.703-3.605-.346-.078-.603-.134-1.507-.145-1.15-.011-2.12 0-2.667.268-.369.178-.648.58-.48.602.212.034.692.134.949.48 0 0 .279.458.323 1.462.123 2.78-.446 3.125-.446 3.125-.435.235-1.194-.156-2.31-2.455 0 0-.648-1.139-1.15-2.389C4.441.862 4.263.74 4.263.74s-.2-.156-.491-.2L.714.56C.245.56.078.773.078.773S-.09.95.067 1.32c2.388 5.614 5.111 8.426 5.111 8.426s2.49 2.6 5.313 2.422h1.283c.39-.034.592-.246.592-.246s.178-.2.167-.569c-.022-1.719.781-1.975.781-1.975.782-.246 1.786 1.663 2.858 2.4 0 0 .814.557 1.428.435l2.857-.045c1.507-.011.793-1.261.793-1.261-.056-.1-.413-.87-2.132-2.467-1.786-1.663-1.551-1.395.614-4.274 1.317-1.753 1.841-2.824 1.674-3.282z"/>
</svg>
