<svg xmlns="http://www.w3.org/2000/svg" width="965" height="284" viewBox="0 0 965 284">
    <g fill="#404750" fill-rule="evenodd">
        <path d="M667.545 204.64c-7.613 0-15.205.118-22.818 0-16.371-.336-24.656-8.878-21.987-23.332a3573.435 3573.435 0 0 1 14.909-75.926c2.67-12.852 12.773-21.75 27.306-22.442a520.945 520.945 0 0 1 52.792 0c13.722.692 20.662 9.748 18.349 21.75-4.35 22.719-8.937 45.477-13.426 68.077-.652 3.262-1.166 6.564-1.977 9.767-3.836 13.84-14.928 21.75-30.805 22.027-7.514.178-14.929.079-22.343.079zm10.202-91.369l-12.06 60.544h15.105l12.022-60.544h-15.067zM737.381 202.682c3.144-16.174 6.189-31.853 9.254-47.454 4.39-22.362 8.897-44.725 13.128-67.107.613-3.223 1.978-3.955 5.379-3.955 21.75.119 43.499 0 65.11 0 15.522 0 23.727 9.016 21.275 22.877-1.977 10.796-3.954 21.591-6.11 32.367a26.574 26.574 0 0 1-14.216 19.417c3.302 14.493 11.725 28.472 3.797 43.816h-40.79l-2.888-39.031c-4.864-1.977-5.002 1.167-5.477 3.658l-5.931 31.379c-.257 1.305-.692 2.57-1.068 3.954l-41.463.08zm55.62-70.587h12.22l3.123-17.321c-3.13-.15-6.266-.11-9.392.119a4.469 4.469 0 0 0-3.163 2.49c-1.127 4.707-1.82 9.373-2.788 14.692v.02zM236.446 202.663h-41.522c1.582-8.186 3.104-16.095 4.646-24.024 5.932-30.054 11.864-60.108 17.637-90.182.633-3.302 1.74-4.449 5.537-4.39 12.22.198 24.438 0 36.974 0l-8.383 43.124c3.505.214 7.021.161 10.519-.158a5.319 5.319 0 0 0 3.302-3.54c2.49-11.724 4.666-23.509 6.98-35.273.256-1.286.691-2.551 1.087-3.955h41.364c-1.602 8.206-3.124 16.154-4.686 24.083-5.932 30.054-11.864 60.088-17.618 90.182-.632 3.342-1.819 4.39-5.575 4.33-12.22-.197-24.44 0-36.955 0l8.225-43.203c-3.618 0-6.564.139-9.47 0-2.907-.138-3.955 1.009-4.49 3.678-2.352 13.09-5.002 26.14-7.572 39.328zM369.297 202.86v-18.724c-5.299 0-10.815-.198-16.292.158-1.207 0-2.769 1.977-3.283 3.164-1.977 4.982-3.618 10.083-5.417 15.224h-41.938c1.7-6.92 2.413-13.742 5.042-19.91 13.347-31.26 27.247-62.323 40.79-93.524 1.602-3.678 3.441-5.3 8.246-5.22 17.4.316 34.8.118 52.753.118.573 11.488 1.186 22.56 1.68 33.614.93 20.919 1.978 41.818 2.531 62.757.159 6.565-1.324 13.169-2.372 19.773a4.192 4.192 0 0 1-3.105 2.491c-12.792.139-25.565.08-38.635.08zm2.215-46.03v-28.413l-1.167-.297-10.42 28.69 11.587.02zM527.674 84.364c-1.324 6.703-2.352 12.773-3.816 18.744-.89 3.698-13.148 11.607-17.439 11.626h-31.003l-1.977 9.887c7.79 1.423 15.343 2.768 22.876 4.172 17.38 3.223 24.142 12.12 20.999 27.681-1.523 7.514-2.927 15.047-4.548 22.54-3.262 15.166-14.79 23.728-31.893 23.846h-64.38l5.933-30.608h49.984l2.63-11.705c-8.522-1.522-16.688-2.788-24.735-4.449-15.818-3.223-22.462-12.654-19.456-26.91 1.64-7.909 3.045-15.7 5.002-23.45 2.763-12.19 13.466-20.936 25.961-21.216 21.651-.771 43.361-.158 65.862-.158zM853.248 202.504L876.4 84.522h88.047c-1.246 6.228-2.294 12.397-3.796 18.487-.95 3.836-1.325 11.745-17.301 11.745h-27.286c-2.848 0-4.45.613-4.746 3.5-.356 3.44-1.265 6.841-1.977 10.776h30.252l-5.695 28.967h-30.29l-2.789 14.117h46.268l-5.754 30.45-88.086-.06zM632.963 84.384c-1.285 6.722-2.373 12.95-3.698 19.12-.929 4.39-12.535 12.694-17.558 12.753H600.18a16973.062 16973.062 0 0 0-6.209 31.497c-3.38 17.321-6.663 34.662-10.222 51.943a5.062 5.062 0 0 1-3.678 3.005c-12.595.218-25.19.138-38.457.138l16.807-86.464h-26.436l6.327-32.012 94.65.02z"/>
        <path d="M144.362 130.679c-8.505-.556-17.314-8.68-20.215-16.776l14.85 4.74 16.067-22.69s-59.39 20.144-65.224 23.152c16.047 6.188 29.595 12.387 38.22 25.194-28.703.98-51.77 1.934-67.183 30.855-22.461-18.64-21.462-48.145 27.428-74.557 20.463-35.479 84.267-33.52 90.234-49.898 1.092 10.386-1.33 18.142-11.53 22.72 18.513-5.452 30.966-11.633 86.966-10.942a134.673 134.673 0 0 0-5.32-7.628C213.622 8.142 151.334-11.562 95.21 7.322 35.724 27.329-2.508 85.697 1.073 150.779c3.445 62.43 49.123 117.816 107.78 130.887 34.26 7.614 55.812-15.17 46.635-50.01-7.915-30.25-27.746-50.782-53.58-66.002-5.049-2.976-6.32-3.766-14.17-8.024 20.582.756 33.987.523 51.253-.031 33.897-1.106 53.512-29.838 44.046-64.103-5.289.052-10.568.446-15.806 1.178-1.373 6.445-15.849 24.766-22.869 36.005z"/>
    </g>
</svg>
